# xmcd
#
# Track frame offsets:
#	150
#	19374
#	37292
#	54943
#	71302
#	90083
#	104095
#	117852
#	132921
#	152734
#	167141
#	184624
#	195865
#	213787
#	226781
#	237042
#	261864
#	275974
#	289382
#	305457
#	335119
#
# Disc length: 4725 seconds
#
# Revision: 1
# Processed by: cddbd v1.5.2PL0 Copyright (c) Steve Scherf et al.
# Submitted via: audiograbber 1.83.01
#
DISCID=2c127315
DTITLE=Various Artist - De Beste Vlaamse Hits Ooit 1 - CD 2
DYEAR=2006
DGENRE=
TTITLE0=Clouseau - Heb ik je ooit gezegd
TTITLE1=Louis Neefs - Margrietje
TTITLE2=Ann Christy - De Roos
TTITLE3=Mama's Jasje - Als de dag van toen
TTITLE4=Johan Verminnen - Laat me nu toch niet alleen
TTITLE5=Wigbert - Ebbenhout Blues
TTITLE6=Bart Herman - Ik ga dood aan jou
TTITLE7=Raymond van het Groenewoud - Trek het je niet aan
TTITLE8=Jan De Wilde - Eerste Sneeuw
TTITLE9=Bart Peeters - Poolijs
TTITLE10=Silvy Melody and Danny Fabry - De telefoon huilt mee
TTITLE11=Liliane Saint-Pierre - Verboden Wensen
TTITLE12=Yasmine - Zeven Dagen
TTITLE13=De Mens - Maandag
TTITLE14=De Nieuwe Snaar - Zwemmer
TTITLE15=Gorki - Mia
TTITLE16=De Kreuners - Ik wil je
TTITLE17=Leopold 3 - Volle Maan
TTITLE18=K.I.A. - Zaterdag
TTITLE19=Monza and Marie Daulne - Ik hou van U - Je t'aime tu sais
TTITLE20=Data Track
EXTD=
EXTT0=
EXTT1=
EXTT2=
EXTT3=
EXTT4=
EXTT5=
EXTT6=
EXTT7=
EXTT8=
EXTT9=
EXTT10=
EXTT11=
EXTT12=
EXTT13=
EXTT14=
EXTT15=
EXTT16=
EXTT17=
EXTT18=
EXTT19=
EXTT20=
PLAYORDER=
